# xmcd
#
# Track frame offsets:
#	150
#	17814
#	32316
#	44144
#	58567
#	70392
#	83350
#	100299
#	114579
#	127333
#	143401
#	159980
#	173215
#	185348
#	208511
#	222973
#	239179
#	251258
#	265424
#	276723
#	289284
#	301127
#
# Disc length: 4193 seconds
#
# Revision: 1
# Processed by: cddbd v1.5.2PL0 Copyright (c) Steve Scherf et al.
# Submitted via: audiograbber 1.83.01
#
DISCID=4b105f16
DTITLE=Western Heart - Western Heart 006
DYEAR=2000
DGENRE=Country
TTITLE0=I´m A Survivor - Johnny Paycheck
TTITLE1=Come On In - Maegan Lee
TTITLE2=What A Way To Live - Rick Robledo
TTITLE3=My Baby Lives In A Honky Tonk - John Welch
TTITLE4=Weak At Heart - Sean O´brian
TTITLE5=Doing It Together - Sylvia Winters
TTITLE6=After You Have Gone - Billy Keeble
TTITLE7=If I Were You - Dave Burgess
TTITLE8=Your Old Used To Be - Curt Ryle
TTITLE9=Knock, Knock Who´s There - Donna Michell
TTITLE10=All I Think Of Is You - Antonio Rosales
TTITLE11=I Got The Blues Again - Erin Hay
TTITLE12=Low Class Reunion - Sean O´brian
TTITLE13=Take Me To The Country - Joyce Meré
TTITLE14=Every Moment We Steal - Jamie Cutler Harper
TTITLE15=Always On My Mind - Woddy Wills
TTITLE16=Half A Mind - Debbie Whitecloud
TTITLE17=Who Walked In - D K Davis
TTITLE18=Love Me Down Easy - Doc Randolph
TTITLE19=A Man With A Broken Heart - Sean O´brian
TTITLE20=Ernie Og Paul - Ernie Ashworth and Paul Mateki
TTITLE21=Ballot Of 2000 - Phillip Wildman
EXTD=
EXTT0=
EXTT1=
EXTT2=
EXTT3=
EXTT4=
EXTT5=
EXTT6=
EXTT7=
EXTT8=
EXTT9=
EXTT10=
EXTT11=
EXTT12=
EXTT13=
EXTT14=
EXTT15=
EXTT16=
EXTT17=
EXTT18=
EXTT19=
EXTT20=
EXTT21=
PLAYORDER=
